<svg xmlns="http://www.w3.org/2000/svg" xmlns:xlink="http://www.w3.org/1999/xlink" width="2000" zoomAndPan="magnify" viewBox="0 0 1500 546.000001" height="728" preserveAspectRatio="xMidYMid meet" version="1.0"><defs><clipPath id="1c43765fc2"><path d="M 1.371094 0 L 1498.628906 0 L 1498.628906 545 L 1.371094 545 Z M 1.371094 0 " clip-rule="nonzero"/></clipPath><clipPath id="6d0c27712f"><path d="M 1.371094 0 L 543.589844 0 L 543.589844 545 L 1.371094 545 Z M 1.371094 0 " clip-rule="nonzero"/></clipPath><clipPath id="e2cc61074f"><path d="M 0.371094 0 L 542.589844 0 L 542.589844 545 L 0.371094 545 Z M 0.371094 0 " clip-rule="nonzero"/></clipPath><clipPath id="bd1f021434"><rect x="0" width="543" y="0" height="545"/></clipPath><clipPath id="331fc3ab7e"><path d="M 543.589844 436.242188 L 1498.628906 436.242188 L 1498.628906 545 L 543.589844 545 Z M 543.589844 436.242188 " clip-rule="nonzero"/></clipPath><clipPath id="a76d9feb4f"><path d="M 0.589844 0.242188 L 955.628906 0.242188 L 955.628906 109 L 0.589844 109 Z M 0.589844 0.242188 " clip-rule="nonzero"/></clipPath><clipPath id="98a0acbced"><rect x="0" width="956" y="0" height="109"/></clipPath><clipPath id="b70b892426"><path d="M 543.589844 0 L 1498.628906 0 L 1498.628906 108.988281 L 543.589844 108.988281 Z M 543.589844 0 " clip-rule="nonzero"/></clipPath><clipPath id="f9960d06c3"><path d="M 0.589844 0 L 955.628906 0 L 955.628906 108.988281 L 0.589844 108.988281 Z M 0.589844 0 " clip-rule="nonzero"/></clipPath><clipPath id="808bee85d2"><rect x="0" width="956" y="0" height="109"/></clipPath><clipPath id="92024f7722"><path d="M 543.589844 215.507812 L 1498.628906 215.507812 L 1498.628906 334.742188 L 543.589844 334.742188 Z M 543.589844 215.507812 " clip-rule="nonzero"/></clipPath><clipPath id="54fdf732f7"><path d="M 0.589844 0.507812 L 955.628906 0.507812 L 955.628906 119.742188 L 0.589844 119.742188 Z M 0.589844 0.507812 " clip-rule="nonzero"/></clipPath><clipPath id="b8b0798bd1"><rect x="0" width="956" y="0" height="120"/></clipPath><clipPath id="c3b2600b64"><path d="M 30.90625 66.570312 L 84.859375 66.570312 L 84.859375 120.105469 L 30.90625 120.105469 Z M 30.90625 66.570312 " clip-rule="nonzero"/></clipPath><clipPath id="9d24418b3b"><path d="M 57.867188 66.570312 C 42.976562 66.570312 30.90625 78.554688 30.90625 93.335938 C 30.90625 108.121094 42.976562 120.105469 57.867188 120.105469 C 72.757812 120.105469 84.832031 108.121094 84.832031 93.335938 C 84.832031 78.554688 72.757812 66.570312 57.867188 66.570312 Z M 57.867188 66.570312 " clip-rule="nonzero"/></clipPath><clipPath id="538192aeff"><path d="M 0.90625 0.570312 L 54.859375 0.570312 L 54.859375 54.105469 L 0.90625 54.105469 Z M 0.90625 0.570312 " clip-rule="nonzero"/></clipPath><clipPath id="6c1be59a5a"><path d="M 27.867188 0.570312 C 12.976562 0.570312 0.90625 12.554688 0.90625 27.335938 C 0.90625 42.121094 12.976562 54.105469 27.867188 54.105469 C 42.757812 54.105469 54.832031 42.121094 54.832031 27.335938 C 54.832031 12.554688 42.757812 0.570312 27.867188 0.570312 Z M 27.867188 0.570312 " clip-rule="nonzero"/></clipPath><clipPath id="85f492f4d7"><rect x="0" width="55" y="0" height="55"/></clipPath><clipPath id="5c0bd7b450"><path d="M 173.933594 66.570312 L 227.886719 66.570312 L 227.886719 120.105469 L 173.933594 120.105469 Z M 173.933594 66.570312 " clip-rule="nonzero"/></clipPath><clipPath id="9c40f0c3cb"><path d="M 200.894531 66.570312 C 186.003906 66.570312 173.933594 78.554688 173.933594 93.335938 C 173.933594 108.121094 186.003906 120.105469 200.894531 120.105469 C 215.785156 120.105469 227.855469 108.121094 227.855469 93.335938 C 227.855469 78.554688 215.785156 66.570312 200.894531 66.570312 Z M 200.894531 66.570312 " clip-rule="nonzero"/></clipPath><clipPath id="50398d6dac"><path d="M 0.933594 0.570312 L 54.886719 0.570312 L 54.886719 54.105469 L 0.933594 54.105469 Z M 0.933594 0.570312 " clip-rule="nonzero"/></clipPath><clipPath id="84bdb489e7"><path d="M 27.894531 0.570312 C 13.003906 0.570312 0.933594 12.554688 0.933594 27.335938 C 0.933594 42.121094 13.003906 54.105469 27.894531 54.105469 C 42.785156 54.105469 54.855469 42.121094 54.855469 27.335938 C 54.855469 12.554688 42.785156 0.570312 27.894531 0.570312 Z M 27.894531 0.570312 " clip-rule="nonzero"/></clipPath><clipPath id="486262c304"><rect x="0" width="55" y="0" height="55"/></clipPath><clipPath id="c01989058c"><path d="M 317.03125 66.570312 L 370.984375 66.570312 L 370.984375 120.105469 L 317.03125 120.105469 Z M 317.03125 66.570312 " clip-rule="nonzero"/></clipPath><clipPath id="1a0af98ec6"><path d="M 343.992188 66.570312 C 329.101562 66.570312 317.03125 78.554688 317.03125 93.335938 C 317.03125 108.121094 329.101562 120.105469 343.992188 120.105469 C 358.882812 120.105469 370.953125 108.121094 370.953125 93.335938 C 370.953125 78.554688 358.882812 66.570312 343.992188 66.570312 Z M 343.992188 66.570312 " clip-rule="nonzero"/></clipPath><clipPath id="bd68353235"><path d="M 0.03125 0.570312 L 53.984375 0.570312 L 53.984375 54.105469 L 0.03125 54.105469 Z M 0.03125 0.570312 " clip-rule="nonzero"/></clipPath><clipPath id="242b6ae4e3"><path d="M 26.992188 0.570312 C 12.101562 0.570312 0.03125 12.554688 0.03125 27.335938 C 0.03125 42.121094 12.101562 54.105469 26.992188 54.105469 C 41.882812 54.105469 53.953125 42.121094 53.953125 27.335938 C 53.953125 12.554688 41.882812 0.570312 26.992188 0.570312 Z M 26.992188 0.570312 " clip-rule="nonzero"/></clipPath><clipPath id="065a80d699"><rect x="0" width="54" y="0" height="55"/></clipPath><clipPath id="4ff5c418da"><path d="M 460.128906 66.570312 L 514.082031 66.570312 L 514.082031 120.105469 L 460.128906 120.105469 Z M 460.128906 66.570312 " clip-rule="nonzero"/></clipPath><clipPath id="3867b05bd0"><path d="M 487.089844 66.570312 C 472.199219 66.570312 460.128906 78.554688 460.128906 93.335938 C 460.128906 108.121094 472.199219 120.105469 487.089844 120.105469 C 501.980469 120.105469 514.050781 108.121094 514.050781 93.335938 C 514.050781 78.554688 501.980469 66.570312 487.089844 66.570312 Z M 487.089844 66.570312 " clip-rule="nonzero"/></clipPath><clipPath id="cae2111816"><path d="M 0.128906 0.570312 L 54.082031 0.570312 L 54.082031 54.105469 L 0.128906 54.105469 Z M 0.128906 0.570312 " clip-rule="nonzero"/></clipPath><clipPath id="4e5dacaf95"><path d="M 27.089844 0.570312 C 12.199219 0.570312 0.128906 12.554688 0.128906 27.335938 C 0.128906 42.121094 12.199219 54.105469 27.089844 54.105469 C 41.980469 54.105469 54.050781 42.121094 54.050781 27.335938 C 54.050781 12.554688 41.980469 0.570312 27.089844 0.570312 Z M 27.089844 0.570312 " clip-rule="nonzero"/></clipPath><clipPath id="403257aa01"><rect x="0" width="55" y="0" height="55"/></clipPath><clipPath id="472848417a"><path d="M 103.28125 160.179688 L 157.234375 160.179688 L 157.234375 213.710938 L 103.28125 213.710938 Z M 103.28125 160.179688 " clip-rule="nonzero"/></clipPath><clipPath id="1ae4c582a9"><path d="M 130.242188 160.179688 C 115.351562 160.179688 103.28125 172.160156 103.28125 186.945312 C 103.28125 201.726562 115.351562 213.710938 130.242188 213.710938 C 145.132812 213.710938 157.203125 201.726562 157.203125 186.945312 C 157.203125 172.160156 145.132812 160.179688 130.242188 160.179688 Z M 130.242188 160.179688 " clip-rule="nonzero"/></clipPath><clipPath id="1e9fab7a49"><path d="M 0.28125 0.179688 L 54.234375 0.179688 L 54.234375 53.710938 L 0.28125 53.710938 Z M 0.28125 0.179688 " clip-rule="nonzero"/></clipPath><clipPath id="c07d00d468"><path d="M 27.242188 0.179688 C 12.351562 0.179688 0.28125 12.160156 0.28125 26.945312 C 0.28125 41.726562 12.351562 53.710938 27.242188 53.710938 C 42.132812 53.710938 54.203125 41.726562 54.203125 26.945312 C 54.203125 12.160156 42.132812 0.179688 27.242188 0.179688 Z M 27.242188 0.179688 " clip-rule="nonzero"/></clipPath><clipPath id="120e59f2dc"><rect x="0" width="55" y="0" height="54"/></clipPath><clipPath id="bca1bd3b1b"><path d="M 247.097656 160.179688 L 301.050781 160.179688 L 301.050781 213.710938 L 247.097656 213.710938 Z M 247.097656 160.179688 " clip-rule="nonzero"/></clipPath><clipPath id="7206d1d71c"><path d="M 274.058594 160.179688 C 259.167969 160.179688 247.097656 172.160156 247.097656 186.945312 C 247.097656 201.726562 259.167969 213.710938 274.058594 213.710938 C 288.949219 213.710938 301.019531 201.726562 301.019531 186.945312 C 301.019531 172.160156 288.949219 160.179688 274.058594 160.179688 Z M 274.058594 160.179688 " clip-rule="nonzero"/></clipPath><clipPath id="1316fecef2"><path d="M 0.0976562 0.179688 L 54.050781 0.179688 L 54.050781 53.710938 L 0.0976562 53.710938 Z M 0.0976562 0.179688 " clip-rule="nonzero"/></clipPath><clipPath id="e686e96317"><path d="M 27.058594 0.179688 C 12.167969 0.179688 0.0976562 12.160156 0.0976562 26.945312 C 0.0976562 41.726562 12.167969 53.710938 27.058594 53.710938 C 41.949219 53.710938 54.019531 41.726562 54.019531 26.945312 C 54.019531 12.160156 41.949219 0.179688 27.058594 0.179688 Z M 27.058594 0.179688 " clip-rule="nonzero"/></clipPath><clipPath id="ecdb1df93d"><rect x="0" width="55" y="0" height="54"/></clipPath><clipPath id="1d61ee8cbb"><path d="M 173.96875 253.386719 L 227.921875 253.386719 L 227.921875 306.921875 L 173.96875 306.921875 Z M 173.96875 253.386719 " clip-rule="nonzero"/></clipPath><clipPath id="a2df279132"><path d="M 200.929688 253.386719 C 186.039062 253.386719 173.96875 265.371094 173.96875 280.15625 C 173.96875 294.9375 186.039062 306.921875 200.929688 306.921875 C 215.820312 306.921875 227.890625 294.9375 227.890625 280.15625 C 227.890625 265.371094 215.820312 253.386719 200.929688 253.386719 Z M 200.929688 253.386719 " clip-rule="nonzero"/></clipPath><clipPath id="cd3a0d2d39"><path d="M 0.96875 0.386719 L 54.921875 0.386719 L 54.921875 53.921875 L 0.96875 53.921875 Z M 0.96875 0.386719 " clip-rule="nonzero"/></clipPath><clipPath id="9bf6558b65"><path d="M 27.929688 0.386719 C 13.039062 0.386719 0.96875 12.371094 0.96875 27.15625 C 0.96875 41.9375 13.039062 53.921875 27.929688 53.921875 C 42.820312 53.921875 54.890625 41.9375 54.890625 27.15625 C 54.890625 12.371094 42.820312 0.386719 27.929688 0.386719 Z M 27.929688 0.386719 " clip-rule="nonzero"/></clipPath><clipPath id="e3ee803367"><rect x="0" width="55" y="0" height="54"/></clipPath><clipPath id="8db0c7d49c"><path d="M 30.90625 253.386719 L 84.859375 253.386719 L 84.859375 306.921875 L 30.90625 306.921875 Z M 30.90625 253.386719 " clip-rule="nonzero"/></clipPath><clipPath id="a907c55558"><path d="M 57.867188 253.386719 C 42.976562 253.386719 30.90625 265.371094 30.90625 280.15625 C 30.90625 294.9375 42.976562 306.921875 57.867188 306.921875 C 72.757812 306.921875 84.832031 294.9375 84.832031 280.15625 C 84.832031 265.371094 72.757812 253.386719 57.867188 253.386719 Z M 57.867188 253.386719 " clip-rule="nonzero"/></clipPath><clipPath id="f355ce1d4a"><path d="M 0.90625 0.386719 L 54.859375 0.386719 L 54.859375 53.921875 L 0.90625 53.921875 Z M 0.90625 0.386719 " clip-rule="nonzero"/></clipPath><clipPath id="ab632618c0"><path d="M 27.867188 0.386719 C 12.976562 0.386719 0.90625 12.371094 0.90625 27.15625 C 0.90625 41.9375 12.976562 53.921875 27.867188 53.921875 C 42.757812 53.921875 54.832031 41.9375 54.832031 27.15625 C 54.832031 12.371094 42.757812 0.386719 27.867188 0.386719 Z M 27.867188 0.386719 " clip-rule="nonzero"/></clipPath><clipPath id="50926cf654"><rect x="0" width="55" y="0" height="54"/></clipPath><clipPath id="62b6cf0dc3"><path d="M 460.128906 253.386719 L 514.082031 253.386719 L 514.082031 306.921875 L 460.128906 306.921875 Z M 460.128906 253.386719 " clip-rule="nonzero"/></clipPath><clipPath id="d646112deb"><path d="M 487.089844 253.386719 C 472.199219 253.386719 460.128906 265.371094 460.128906 280.15625 C 460.128906 294.9375 472.199219 306.921875 487.089844 306.921875 C 501.980469 306.921875 514.050781 294.9375 514.050781 280.15625 C 514.050781 265.371094 501.980469 253.386719 487.089844 253.386719 Z M 487.089844 253.386719 " clip-rule="nonzero"/></clipPath><clipPath id="c6814f5174"><path d="M 0.128906 0.386719 L 54.082031 0.386719 L 54.082031 53.921875 L 0.128906 53.921875 Z M 0.128906 0.386719 " clip-rule="nonzero"/></clipPath><clipPath id="7bf26f28ad"><path d="M 27.089844 0.386719 C 12.199219 0.386719 0.128906 12.371094 0.128906 27.15625 C 0.128906 41.9375 12.199219 53.921875 27.089844 53.921875 C 41.980469 53.921875 54.050781 41.9375 54.050781 27.15625 C 54.050781 12.371094 41.980469 0.386719 27.089844 0.386719 Z M 27.089844 0.386719 " clip-rule="nonzero"/></clipPath><clipPath id="708ad76c32"><rect x="0" width="55" y="0" height="54"/></clipPath><clipPath id="97abb3daf0"><path d="M 317.03125 253.484375 L 370.984375 253.484375 L 370.984375 307.019531 L 317.03125 307.019531 Z M 317.03125 253.484375 " clip-rule="nonzero"/></clipPath><clipPath id="f6d1717a53"><path d="M 343.992188 253.484375 C 329.101562 253.484375 317.03125 265.46875 317.03125 280.253906 C 317.03125 295.035156 329.101562 307.019531 343.992188 307.019531 C 358.882812 307.019531 370.953125 295.035156 370.953125 280.253906 C 370.953125 265.46875 358.882812 253.484375 343.992188 253.484375 Z M 343.992188 253.484375 " clip-rule="nonzero"/></clipPath><clipPath id="4f632f5311"><path d="M 0.03125 0.484375 L 53.984375 0.484375 L 53.984375 54.019531 L 0.03125 54.019531 Z M 0.03125 0.484375 " clip-rule="nonzero"/></clipPath><clipPath id="7bf4b7bc81"><path d="M 26.992188 0.484375 C 12.101562 0.484375 0.03125 12.46875 0.03125 27.253906 C 0.03125 42.035156 12.101562 54.019531 26.992188 54.019531 C 41.882812 54.019531 53.953125 42.035156 53.953125 27.253906 C 53.953125 12.46875 41.882812 0.484375 26.992188 0.484375 Z M 26.992188 0.484375 " clip-rule="nonzero"/></clipPath><clipPath id="b9773bacbb"><rect x="0" width="54" y="0" height="55"/></clipPath><clipPath id="fe373fb41d"><path d="M 388.113281 160.179688 L 442.066406 160.179688 L 442.066406 213.710938 L 388.113281 213.710938 Z M 388.113281 160.179688 " clip-rule="nonzero"/></clipPath><clipPath id="f59b6b76fa"><path d="M 415.074219 160.179688 C 400.183594 160.179688 388.113281 172.160156 388.113281 186.945312 C 388.113281 201.726562 400.183594 213.710938 415.074219 213.710938 C 429.964844 213.710938 442.035156 201.726562 442.035156 186.945312 C 442.035156 172.160156 429.964844 160.179688 415.074219 160.179688 Z M 415.074219 160.179688 " clip-rule="nonzero"/></clipPath><clipPath id="aaa6f2f79a"><path d="M 0.113281 0.179688 L 54.066406 0.179688 L 54.066406 53.710938 L 0.113281 53.710938 Z M 0.113281 0.179688 " clip-rule="nonzero"/></clipPath><clipPath id="e5627281e5"><path d="M 27.074219 0.179688 C 12.183594 0.179688 0.113281 12.160156 0.113281 26.945312 C 0.113281 41.726562 12.183594 53.710938 27.074219 53.710938 C 41.964844 53.710938 54.035156 41.726562 54.035156 26.945312 C 54.035156 12.160156 41.964844 0.179688 27.074219 0.179688 Z M 27.074219 0.179688 " clip-rule="nonzero"/></clipPath><clipPath id="6588cda995"><rect x="0" width="55" y="0" height="54"/></clipPath><clipPath id="8f014d5751"><path d="M 103.28125 343.730469 L 157.234375 343.730469 L 157.234375 397.265625 L 103.28125 397.265625 Z M 103.28125 343.730469 " clip-rule="nonzero"/></clipPath><clipPath id="5818932825"><path d="M 130.242188 343.730469 C 115.351562 343.730469 103.28125 355.714844 103.28125 370.496094 C 103.28125 385.28125 115.351562 397.265625 130.242188 397.265625 C 145.132812 397.265625 157.203125 385.28125 157.203125 370.496094 C 157.203125 355.714844 145.132812 343.730469 130.242188 343.730469 Z M 130.242188 343.730469 " clip-rule="nonzero"/></clipPath><clipPath id="13d22ddb75"><path d="M 0.28125 0.730469 L 54.234375 0.730469 L 54.234375 54.265625 L 0.28125 54.265625 Z M 0.28125 0.730469 " clip-rule="nonzero"/></clipPath><clipPath id="682c827a16"><path d="M 27.242188 0.730469 C 12.351562 0.730469 0.28125 12.714844 0.28125 27.496094 C 0.28125 42.28125 12.351562 54.265625 27.242188 54.265625 C 42.132812 54.265625 54.203125 42.28125 54.203125 27.496094 C 54.203125 12.714844 42.132812 0.730469 27.242188 0.730469 Z M 27.242188 0.730469 " clip-rule="nonzero"/></clipPath><clipPath id="ff42405d42"><rect x="0" width="55" y="0" height="55"/></clipPath><clipPath id="cb56069ce3"><path d="M 245.695312 343.730469 L 299.648438 343.730469 L 299.648438 397.265625 L 245.695312 397.265625 Z M 245.695312 343.730469 " clip-rule="nonzero"/></clipPath><clipPath id="1e97f187c8"><path d="M 272.65625 343.730469 C 257.769531 343.730469 245.695312 355.714844 245.695312 370.496094 C 245.695312 385.28125 257.769531 397.265625 272.65625 397.265625 C 287.546875 397.265625 299.621094 385.28125 299.621094 370.496094 C 299.621094 355.714844 287.546875 343.730469 272.65625 343.730469 Z M 272.65625 343.730469 " clip-rule="nonzero"/></clipPath><clipPath id="468985d38d"><path d="M 0.695312 0.730469 L 54.625 0.730469 L 54.625 54.265625 L 0.695312 54.265625 Z M 0.695312 0.730469 " clip-rule="nonzero"/></clipPath><clipPath id="fbbcd4da3a"><path d="M 27.65625 0.730469 C 12.769531 0.730469 0.695312 12.714844 0.695312 27.496094 C 0.695312 42.28125 12.769531 54.265625 27.65625 54.265625 C 42.546875 54.265625 54.621094 42.28125 54.621094 27.496094 C 54.621094 12.714844 42.546875 0.730469 27.65625 0.730469 Z M 27.65625 0.730469 " clip-rule="nonzero"/></clipPath><clipPath id="63b964a359"><rect x="0" width="55" y="0" height="55"/></clipPath><clipPath id="b9603d96c6"><path d="M 388.113281 343.730469 L 442.066406 343.730469 L 442.066406 397.265625 L 388.113281 397.265625 Z M 388.113281 343.730469 " clip-rule="nonzero"/></clipPath><clipPath id="f9769f07f0"><path d="M 415.074219 343.730469 C 400.183594 343.730469 388.113281 355.714844 388.113281 370.496094 C 388.113281 385.28125 400.183594 397.265625 415.074219 397.265625 C 429.964844 397.265625 442.035156 385.28125 442.035156 370.496094 C 442.035156 355.714844 429.964844 343.730469 415.074219 343.730469 Z M 415.074219 343.730469 " clip-rule="nonzero"/></clipPath><clipPath id="f4d962866d"><path d="M 0.113281 0.730469 L 54.066406 0.730469 L 54.066406 54.265625 L 0.113281 54.265625 Z M 0.113281 0.730469 " clip-rule="nonzero"/></clipPath><clipPath id="7f2a16df75"><path d="M 27.074219 0.730469 C 12.183594 0.730469 0.113281 12.714844 0.113281 27.496094 C 0.113281 42.28125 12.183594 54.265625 27.074219 54.265625 C 41.964844 54.265625 54.035156 42.28125 54.035156 27.496094 C 54.035156 12.714844 41.964844 0.730469 27.074219 0.730469 Z M 27.074219 0.730469 " clip-rule="nonzero"/></clipPath><clipPath id="9c6fde0ae5"><rect x="0" width="55" y="0" height="55"/></clipPath><clipPath id="0ee6a472ae"><path d="M 460.128906 436.964844 L 514.082031 436.964844 L 514.082031 490.5 L 460.128906 490.5 Z M 460.128906 436.964844 " clip-rule="nonzero"/></clipPath><clipPath id="0191c5cb49"><path d="M 487.089844 436.964844 C 472.199219 436.964844 460.128906 448.949219 460.128906 463.734375 C 460.128906 478.515625 472.199219 490.5 487.089844 490.5 C 501.980469 490.5 514.050781 478.515625 514.050781 463.734375 C 514.050781 448.949219 501.980469 436.964844 487.089844 436.964844 Z M 487.089844 436.964844 " clip-rule="nonzero"/></clipPath><clipPath id="0940c0cc34"><path d="M 0.128906 0.964844 L 54.082031 0.964844 L 54.082031 54.5 L 0.128906 54.5 Z M 0.128906 0.964844 " clip-rule="nonzero"/></clipPath><clipPath id="cf50be1163"><path d="M 27.089844 0.964844 C 12.199219 0.964844 0.128906 12.949219 0.128906 27.734375 C 0.128906 42.515625 12.199219 54.5 27.089844 54.5 C 41.980469 54.5 54.050781 42.515625 54.050781 27.734375 C 54.050781 12.949219 41.980469 0.964844 27.089844 0.964844 Z M 27.089844 0.964844 " clip-rule="nonzero"/></clipPath><clipPath id="4fb4074c94"><rect x="0" width="55" y="0" height="55"/></clipPath><clipPath id="7c8319bb7d"><path d="M 317.03125 436.964844 L 370.984375 436.964844 L 370.984375 490.5 L 317.03125 490.5 Z M 317.03125 436.964844 " clip-rule="nonzero"/></clipPath><clipPath id="e339e06f06"><path d="M 343.992188 436.964844 C 329.101562 436.964844 317.03125 448.949219 317.03125 463.734375 C 317.03125 478.515625 329.101562 490.5 343.992188 490.5 C 358.882812 490.5 370.953125 478.515625 370.953125 463.734375 C 370.953125 448.949219 358.882812 436.964844 343.992188 436.964844 Z M 343.992188 436.964844 " clip-rule="nonzero"/></clipPath><clipPath id="074827f863"><path d="M 0.03125 0.964844 L 53.984375 0.964844 L 53.984375 54.5 L 0.03125 54.5 Z M 0.03125 0.964844 " clip-rule="nonzero"/></clipPath><clipPath id="05dfe6063d"><path d="M 26.992188 0.964844 C 12.101562 0.964844 0.03125 12.949219 0.03125 27.734375 C 0.03125 42.515625 12.101562 54.5 26.992188 54.5 C 41.882812 54.5 53.953125 42.515625 53.953125 27.734375 C 53.953125 12.949219 41.882812 0.964844 26.992188 0.964844 Z M 26.992188 0.964844 " clip-rule="nonzero"/></clipPath><clipPath id="cb439d451d"><rect x="0" width="54" y="0" height="55"/></clipPath><clipPath id="884dfe41e1"><path d="M 173.933594 436.964844 L 227.886719 436.964844 L 227.886719 490.5 L 173.933594 490.5 Z M 173.933594 436.964844 " clip-rule="nonzero"/></clipPath><clipPath id="e9deae2fb3"><path d="M 200.894531 436.964844 C 186.003906 436.964844 173.933594 448.949219 173.933594 463.734375 C 173.933594 478.515625 186.003906 490.5 200.894531 490.5 C 215.785156 490.5 227.855469 478.515625 227.855469 463.734375 C 227.855469 448.949219 215.785156 436.964844 200.894531 436.964844 Z M 200.894531 436.964844 " clip-rule="nonzero"/></clipPath><clipPath id="5bf405d011"><path d="M 0.933594 0.964844 L 54.886719 0.964844 L 54.886719 54.5 L 0.933594 54.5 Z M 0.933594 0.964844 " clip-rule="nonzero"/></clipPath><clipPath id="19b54f2e9e"><path d="M 27.894531 0.964844 C 13.003906 0.964844 0.933594 12.949219 0.933594 27.734375 C 0.933594 42.515625 13.003906 54.5 27.894531 54.5 C 42.785156 54.5 54.855469 42.515625 54.855469 27.734375 C 54.855469 12.949219 42.785156 0.964844 27.894531 0.964844 Z M 27.894531 0.964844 " clip-rule="nonzero"/></clipPath><clipPath id="74ceac629d"><rect x="0" width="55" y="0" height="55"/></clipPath><clipPath id="9e106dd995"><path d="M 30.90625 436.964844 L 84.859375 436.964844 L 84.859375 490.5 L 30.90625 490.5 Z M 30.90625 436.964844 " clip-rule="nonzero"/></clipPath><clipPath id="06a940f69e"><path d="M 57.867188 436.964844 C 42.976562 436.964844 30.90625 448.949219 30.90625 463.734375 C 30.90625 478.515625 42.976562 490.5 57.867188 490.5 C 72.757812 490.5 84.832031 478.515625 84.832031 463.734375 C 84.832031 448.949219 72.757812 436.964844 57.867188 436.964844 Z M 57.867188 436.964844 " clip-rule="nonzero"/></clipPath><clipPath id="3f5de18dcb"><path d="M 0.90625 0.964844 L 54.859375 0.964844 L 54.859375 54.5 L 0.90625 54.5 Z M 0.90625 0.964844 " clip-rule="nonzero"/></clipPath><clipPath id="f7f47f09a7"><path d="M 27.867188 0.964844 C 12.976562 0.964844 0.90625 12.949219 0.90625 27.734375 C 0.90625 42.515625 12.976562 54.5 27.867188 54.5 C 42.757812 54.5 54.832031 42.515625 54.832031 27.734375 C 54.832031 12.949219 42.757812 0.964844 27.867188 0.964844 Z M 27.867188 0.964844 " clip-rule="nonzero"/></clipPath><clipPath id="e04e5f4861"><rect x="0" width="55" y="0" height="55"/></clipPath></defs><g clip-path="url(#1c43765fc2)"><path fill="#ffffff" d="M 1.371094 0 L 1498.628906 0 L 1498.628906 545 L 1.371094 545 Z M 1.371094 0 " fill-opacity="1" fill-rule="nonzero"/><path fill="#ffffff" d="M 1.371094 0 L 1498.628906 0 L 1498.628906 545 L 1.371094 545 Z M 1.371094 0 " fill-opacity="1" fill-rule="nonzero"/></g><g clip-path="url(#6d0c27712f)"><g transform="matrix(1, 0, 0, 1, 1, 0.00000000000000185)"><g clip-path="url(#bd1f021434)"><g clip-path="url(#e2cc61074f)"><path fill="#0202eb" d="M 0.371094 0 L 542.589844 0 L 542.589844 544.335938 L 0.371094 544.335938 Z M 0.371094 0 " fill-opacity="1" fill-rule="nonzero"/></g></g></g></g><g clip-path="url(#331fc3ab7e)"><g transform="matrix(1, 0, 0, 1, 543, 436)"><g clip-path="url(#98a0acbced)"><g clip-path="url(#a76d9feb4f)"><path fill="#ee0000" d="M 0.589844 0.242188 L 955.632812 0.242188 L 955.632812 109 L 0.589844 109 Z M 0.589844 0.242188 " fill-opacity="1" fill-rule="nonzero"/></g></g></g></g><g clip-path="url(#b70b892426)"><g transform="matrix(1, 0, 0, 1, 543, 0.00000000000000185)"><g clip-path="url(#808bee85d2)"><g clip-path="url(#f9960d06c3)"><path fill="#ee0000" d="M 0.589844 0 L 955.527344 0 L 955.527344 108.988281 L 0.589844 108.988281 Z M 0.589844 0 " fill-opacity="1" fill-rule="nonzero"/></g></g></g></g><g clip-path="url(#92024f7722)"><g transform="matrix(1, 0, 0, 1, 543, 215)"><g clip-path="url(#b8b0798bd1)"><g clip-path="url(#54fdf732f7)"><path fill="#ff6100" d="M 0.589844 0.507812 L 955.398438 0.507812 L 955.398438 119.742188 L 0.589844 119.742188 Z M 0.589844 0.507812 " fill-opacity="1" fill-rule="nonzero"/></g></g></g></g><g clip-path="url(#c3b2600b64)"><g clip-path="url(#9d24418b3b)"><g transform="matrix(1, 0, 0, 1, 30, 66)"><g clip-path="url(#85f492f4d7)"><g clip-path="url(#538192aeff)"><g clip-path="url(#6c1be59a5a)"><path fill="#ffffff" d="M 0.90625 0.570312 L 54.859375 0.570312 L 54.859375 54.105469 L 0.90625 54.105469 Z M 0.90625 0.570312 " fill-opacity="1" fill-rule="nonzero"/></g></g></g></g></g></g><g clip-path="url(#5c0bd7b450)"><g clip-path="url(#9c40f0c3cb)"><g transform="matrix(1, 0, 0, 1, 173, 66)"><g clip-path="url(#486262c304)"><g clip-path="url(#50398d6dac)"><g clip-path="url(#84bdb489e7)"><path fill="#ffffff" d="M 0.933594 0.570312 L 54.886719 0.570312 L 54.886719 54.105469 L 0.933594 54.105469 Z M 0.933594 0.570312 " fill-opacity="1" fill-rule="nonzero"/></g></g></g></g></g></g><g clip-path="url(#c01989058c)"><g clip-path="url(#1a0af98ec6)"><g transform="matrix(1, 0, 0, 1, 317, 66)"><g clip-path="url(#065a80d699)"><g clip-path="url(#bd68353235)"><g clip-path="url(#242b6ae4e3)"><path fill="#ffffff" d="M 0.03125 0.570312 L 53.984375 0.570312 L 53.984375 54.105469 L 0.03125 54.105469 Z M 0.03125 0.570312 " fill-opacity="1" fill-rule="nonzero"/></g></g></g></g></g></g><g clip-path="url(#4ff5c418da)"><g clip-path="url(#3867b05bd0)"><g transform="matrix(1, 0, 0, 1, 460, 66)"><g clip-path="url(#403257aa01)"><g clip-path="url(#cae2111816)"><g clip-path="url(#4e5dacaf95)"><path fill="#ffffff" d="M 0.128906 0.570312 L 54.082031 0.570312 L 54.082031 54.105469 L 0.128906 54.105469 Z M 0.128906 0.570312 " fill-opacity="1" fill-rule="nonzero"/></g></g></g></g></g></g><g clip-path="url(#472848417a)"><g clip-path="url(#1ae4c582a9)"><g transform="matrix(1, 0, 0, 1, 103, 160)"><g clip-path="url(#120e59f2dc)"><g clip-path="url(#1e9fab7a49)"><g clip-path="url(#c07d00d468)"><path fill="#ffffff" d="M 0.28125 0.179688 L 54.234375 0.179688 L 54.234375 53.710938 L 0.28125 53.710938 Z M 0.28125 0.179688 " fill-opacity="1" fill-rule="nonzero"/></g></g></g></g></g></g><g clip-path="url(#bca1bd3b1b)"><g clip-path="url(#7206d1d71c)"><g transform="matrix(1, 0, 0, 1, 247, 160)"><g clip-path="url(#ecdb1df93d)"><g clip-path="url(#1316fecef2)"><g clip-path="url(#e686e96317)"><path fill="#ffffff" d="M 0.0976562 0.179688 L 54.050781 0.179688 L 54.050781 53.710938 L 0.0976562 53.710938 Z M 0.0976562 0.179688 " fill-opacity="1" fill-rule="nonzero"/></g></g></g></g></g></g><g clip-path="url(#1d61ee8cbb)"><g clip-path="url(#a2df279132)"><g transform="matrix(1, 0, 0, 1, 173, 253)"><g clip-path="url(#e3ee803367)"><g clip-path="url(#cd3a0d2d39)"><g clip-path="url(#9bf6558b65)"><path fill="#ffffff" d="M 0.96875 0.386719 L 54.921875 0.386719 L 54.921875 53.921875 L 0.96875 53.921875 Z M 0.96875 0.386719 " fill-opacity="1" fill-rule="nonzero"/></g></g></g></g></g></g><g clip-path="url(#8db0c7d49c)"><g clip-path="url(#a907c55558)"><g transform="matrix(1, 0, 0, 1, 30, 253)"><g clip-path="url(#50926cf654)"><g clip-path="url(#f355ce1d4a)"><g clip-path="url(#ab632618c0)"><path fill="#ffffff" d="M 0.90625 0.386719 L 54.859375 0.386719 L 54.859375 53.921875 L 0.90625 53.921875 Z M 0.90625 0.386719 " fill-opacity="1" fill-rule="nonzero"/></g></g></g></g></g></g><g clip-path="url(#62b6cf0dc3)"><g clip-path="url(#d646112deb)"><g transform="matrix(1, 0, 0, 1, 460, 253)"><g clip-path="url(#708ad76c32)"><g clip-path="url(#c6814f5174)"><g clip-path="url(#7bf26f28ad)"><path fill="#ffffff" d="M 0.128906 0.386719 L 54.082031 0.386719 L 54.082031 53.921875 L 0.128906 53.921875 Z M 0.128906 0.386719 " fill-opacity="1" fill-rule="nonzero"/></g></g></g></g></g></g><g clip-path="url(#97abb3daf0)"><g clip-path="url(#f6d1717a53)"><g transform="matrix(1, 0, 0, 1, 317, 253)"><g clip-path="url(#b9773bacbb)"><g clip-path="url(#4f632f5311)"><g clip-path="url(#7bf4b7bc81)"><path fill="#ffffff" d="M 0.03125 0.484375 L 53.984375 0.484375 L 53.984375 54.019531 L 0.03125 54.019531 Z M 0.03125 0.484375 " fill-opacity="1" fill-rule="nonzero"/></g></g></g></g></g></g><g clip-path="url(#fe373fb41d)"><g clip-path="url(#f59b6b76fa)"><g transform="matrix(1, 0, 0, 1, 388, 160)"><g clip-path="url(#6588cda995)"><g clip-path="url(#aaa6f2f79a)"><g clip-path="url(#e5627281e5)"><path fill="#ffffff" d="M 0.113281 0.179688 L 54.066406 0.179688 L 54.066406 53.710938 L 0.113281 53.710938 Z M 0.113281 0.179688 " fill-opacity="1" fill-rule="nonzero"/></g></g></g></g></g></g><g clip-path="url(#8f014d5751)"><g clip-path="url(#5818932825)"><g transform="matrix(1, 0, 0, 1, 103, 343)"><g clip-path="url(#ff42405d42)"><g clip-path="url(#13d22ddb75)"><g clip-path="url(#682c827a16)"><path fill="#ffffff" d="M 0.28125 0.730469 L 54.234375 0.730469 L 54.234375 54.265625 L 0.28125 54.265625 Z M 0.28125 0.730469 " fill-opacity="1" fill-rule="nonzero"/></g></g></g></g></g></g><g clip-path="url(#cb56069ce3)"><g clip-path="url(#1e97f187c8)"><g transform="matrix(1, 0, 0, 1, 245, 343)"><g clip-path="url(#63b964a359)"><g clip-path="url(#468985d38d)"><g clip-path="url(#fbbcd4da3a)"><path fill="#ffffff" d="M 0.695312 0.730469 L 54.648438 0.730469 L 54.648438 54.265625 L 0.695312 54.265625 Z M 0.695312 0.730469 " fill-opacity="1" fill-rule="nonzero"/></g></g></g></g></g></g><g clip-path="url(#b9603d96c6)"><g clip-path="url(#f9769f07f0)"><g transform="matrix(1, 0, 0, 1, 388, 343)"><g clip-path="url(#9c6fde0ae5)"><g clip-path="url(#f4d962866d)"><g clip-path="url(#7f2a16df75)"><path fill="#ffffff" d="M 0.113281 0.730469 L 54.066406 0.730469 L 54.066406 54.265625 L 0.113281 54.265625 Z M 0.113281 0.730469 " fill-opacity="1" fill-rule="nonzero"/></g></g></g></g></g></g><g clip-path="url(#0ee6a472ae)"><g clip-path="url(#0191c5cb49)"><g transform="matrix(1, 0, 0, 1, 460, 436)"><g clip-path="url(#4fb4074c94)"><g clip-path="url(#0940c0cc34)"><g clip-path="url(#cf50be1163)"><path fill="#ffffff" d="M 0.128906 0.964844 L 54.082031 0.964844 L 54.082031 54.5 L 0.128906 54.5 Z M 0.128906 0.964844 " fill-opacity="1" fill-rule="nonzero"/></g></g></g></g></g></g><g clip-path="url(#7c8319bb7d)"><g clip-path="url(#e339e06f06)"><g transform="matrix(1, 0, 0, 1, 317, 436)"><g clip-path="url(#cb439d451d)"><g clip-path="url(#074827f863)"><g clip-path="url(#05dfe6063d)"><path fill="#ffffff" d="M 0.03125 0.964844 L 53.984375 0.964844 L 53.984375 54.5 L 0.03125 54.5 Z M 0.03125 0.964844 " fill-opacity="1" fill-rule="nonzero"/></g></g></g></g></g></g><g clip-path="url(#884dfe41e1)"><g clip-path="url(#e9deae2fb3)"><g transform="matrix(1, 0, 0, 1, 173, 436)"><g clip-path="url(#74ceac629d)"><g clip-path="url(#5bf405d011)"><g clip-path="url(#19b54f2e9e)"><path fill="#ffffff" d="M 0.933594 0.964844 L 54.886719 0.964844 L 54.886719 54.5 L 0.933594 54.5 Z M 0.933594 0.964844 " fill-opacity="1" fill-rule="nonzero"/></g></g></g></g></g></g><g clip-path="url(#9e106dd995)"><g clip-path="url(#06a940f69e)"><g transform="matrix(1, 0, 0, 1, 30, 436)"><g clip-path="url(#e04e5f4861)"><g clip-path="url(#3f5de18dcb)"><g clip-path="url(#f7f47f09a7)"><path fill="#ffffff" d="M 0.90625 0.964844 L 54.859375 0.964844 L 54.859375 54.5 L 0.90625 54.5 Z M 0.90625 0.964844 " fill-opacity="1" fill-rule="nonzero"/></g></g></g></g></g></g></svg>
