<svg xmlns="http://www.w3.org/2000/svg" width="1500" height="546" viewBox="0 0 1500 546">
  <rect width="543" height="546" fill="#0202eb" />

  <rect x="543" y="0" width="957" height="109" fill="#ee0000" />
  <rect x="543" y="215" width="957" height="120" fill="#ff6100" />
  <rect x="543" y="436" width="957" height="110" fill="#ee0000" />

  <rect x="543" y="109" width="957" height="106" fill="#ffffff" />
  <rect x="543" y="335" width="957" height="101" fill="#ffffff" />

  <g fill="#ffffff">
    <circle cx="57" cy="93" r="27" />
    <circle cx="200" cy="93" r="27" />
    <circle cx="343" cy="93" r="27" />
    <circle cx="487" cy="93" r="27" />

    <circle cx="130" cy="186" r="27" />
    <circle cx="274" cy="186" r="27" />
    <circle cx="415" cy="186" r="27" />

    <circle cx="57" cy="280" r="27" />
    <circle cx="200" cy="280" r="27" />
    <circle cx="343" cy="280" r="27" />
    <circle cx="487" cy="280" r="27" />

    <circle cx="130" cy="370" r="27" />
    <circle cx="272" cy="370" r="27" />
    <circle cx="415" cy="370" r="27" />

    <circle cx="57" cy="463" r="27" />
    <circle cx="200" cy="463" r="27" />
    <circle cx="343" cy="463" r="27" />
    <circle cx="487" cy="463" r="27" />
  </g>
</svg>
